<mxfile host="app.diagrams.net" modified="2023-10-20T14:46:15.269Z" agent="Mozilla/5.0 (Windows NT 10.0; Win64; x64) AppleWebKit/537.36 (KHTML, like Gecko) Chrome/117.0.0.0 Safari/537.36" etag="iSWPRfmx3vYVZtrFfWBe" version="22.0.6" type="device">
  <diagram name="Page-1" id="2YBvvXClWsGukQMizWep">
    <mxGraphModel dx="2074" dy="1142" grid="1" gridSize="10" guides="1" tooltips="1" connect="1" arrows="1" fold="1" page="1" pageScale="1" pageWidth="850" pageHeight="1100" math="0" shadow="0">
      <root>
        <mxCell id="0" />
        <mxCell id="1" parent="0" />
        <mxCell id="GWyn577O8GgOCj4Um4mr-6" value="" style="rounded=0;whiteSpace=wrap;html=1;" parent="1" vertex="1">
          <mxGeometry x="90" y="30" width="120" height="440" as="geometry" />
        </mxCell>
        <mxCell id="GWyn577O8GgOCj4Um4mr-2" value="0-5" style="html=1;dashed=0;whiteSpace=wrap;" parent="1" vertex="1">
          <mxGeometry x="100" y="80" width="100" height="50" as="geometry" />
        </mxCell>
        <mxCell id="GWyn577O8GgOCj4Um4mr-3" value="5-10" style="shape=rhombus;html=1;dashed=0;whiteSpace=wrap;perimeter=rhombusPerimeter;" parent="1" vertex="1">
          <mxGeometry x="120" y="180" width="60" height="50" as="geometry" />
        </mxCell>
        <mxCell id="GWyn577O8GgOCj4Um4mr-4" value="10-15" style="shape=ellipse;html=1;dashed=0;whiteSpace=wrap;aspect=fixed;perimeter=ellipsePerimeter;" parent="1" vertex="1">
          <mxGeometry x="130" y="280" width="40" height="40" as="geometry" />
        </mxCell>
        <mxCell id="GWyn577O8GgOCj4Um4mr-5" value="15-20" style="shape=parallelogram;perimeter=parallelogramPerimeter;whiteSpace=wrap;html=1;dashed=0;" parent="1" vertex="1">
          <mxGeometry x="100" y="370" width="100" height="50" as="geometry" />
        </mxCell>
        <mxCell id="GWyn577O8GgOCj4Um4mr-7" value="" style="rounded=0;whiteSpace=wrap;html=1;" parent="1" vertex="1">
          <mxGeometry x="250" y="30" width="120" height="440" as="geometry" />
        </mxCell>
        <mxCell id="GWyn577O8GgOCj4Um4mr-8" value="0-5" style="html=1;dashed=0;whiteSpace=wrap;" parent="1" vertex="1">
          <mxGeometry x="260" y="80" width="100" height="50" as="geometry" />
        </mxCell>
        <mxCell id="GWyn577O8GgOCj4Um4mr-9" value="5-10" style="shape=rhombus;html=1;dashed=0;whiteSpace=wrap;perimeter=rhombusPerimeter;" parent="1" vertex="1">
          <mxGeometry x="280" y="180" width="60" height="50" as="geometry" />
        </mxCell>
        <mxCell id="GWyn577O8GgOCj4Um4mr-10" value="10-15" style="shape=ellipse;html=1;dashed=0;whiteSpace=wrap;aspect=fixed;perimeter=ellipsePerimeter;" parent="1" vertex="1">
          <mxGeometry x="290" y="270" width="40" height="40" as="geometry" />
        </mxCell>
        <mxCell id="GWyn577O8GgOCj4Um4mr-11" value="15-20" style="shape=parallelogram;perimeter=parallelogramPerimeter;whiteSpace=wrap;html=1;dashed=0;" parent="1" vertex="1">
          <mxGeometry x="260" y="370" width="100" height="50" as="geometry" />
        </mxCell>
        <mxCell id="GWyn577O8GgOCj4Um4mr-12" value="" style="rounded=0;whiteSpace=wrap;html=1;" parent="1" vertex="1">
          <mxGeometry x="410" y="30" width="120" height="440" as="geometry" />
        </mxCell>
        <mxCell id="GWyn577O8GgOCj4Um4mr-13" value="0-5" style="html=1;dashed=0;whiteSpace=wrap;" parent="1" vertex="1">
          <mxGeometry x="420" y="80" width="100" height="50" as="geometry" />
        </mxCell>
        <mxCell id="GWyn577O8GgOCj4Um4mr-14" value="10-15" style="shape=rhombus;html=1;dashed=0;whiteSpace=wrap;perimeter=rhombusPerimeter;" parent="1" vertex="1">
          <mxGeometry x="440" y="180" width="60" height="50" as="geometry" />
        </mxCell>
        <mxCell id="GWyn577O8GgOCj4Um4mr-15" value="15-20" style="shape=ellipse;html=1;dashed=0;whiteSpace=wrap;aspect=fixed;perimeter=ellipsePerimeter;" parent="1" vertex="1">
          <mxGeometry x="450" y="270" width="40" height="40" as="geometry" />
        </mxCell>
        <mxCell id="GWyn577O8GgOCj4Um4mr-16" value="20-25" style="shape=parallelogram;perimeter=parallelogramPerimeter;whiteSpace=wrap;html=1;dashed=0;" parent="1" vertex="1">
          <mxGeometry x="420" y="370" width="100" height="50" as="geometry" />
        </mxCell>
        <mxCell id="GWyn577O8GgOCj4Um4mr-23" value="" style="rounded=0;whiteSpace=wrap;html=1;" parent="1" vertex="1">
          <mxGeometry x="570" y="30" width="120" height="440" as="geometry" />
        </mxCell>
        <mxCell id="GWyn577O8GgOCj4Um4mr-24" value="0-5" style="html=1;dashed=0;whiteSpace=wrap;" parent="1" vertex="1">
          <mxGeometry x="580" y="80" width="100" height="50" as="geometry" />
        </mxCell>
        <mxCell id="GWyn577O8GgOCj4Um4mr-25" value="10-15" style="shape=rhombus;html=1;dashed=0;whiteSpace=wrap;perimeter=rhombusPerimeter;" parent="1" vertex="1">
          <mxGeometry x="600" y="180" width="60" height="50" as="geometry" />
        </mxCell>
        <mxCell id="GWyn577O8GgOCj4Um4mr-26" value="15-20" style="shape=ellipse;html=1;dashed=0;whiteSpace=wrap;aspect=fixed;perimeter=ellipsePerimeter;" parent="1" vertex="1">
          <mxGeometry x="605" y="270" width="50" height="50" as="geometry" />
        </mxCell>
        <mxCell id="GWyn577O8GgOCj4Um4mr-27" value="20-25" style="shape=parallelogram;perimeter=parallelogramPerimeter;whiteSpace=wrap;html=1;dashed=0;" parent="1" vertex="1">
          <mxGeometry x="580" y="370" width="100" height="50" as="geometry" />
        </mxCell>
        <mxCell id="GWyn577O8GgOCj4Um4mr-28" value="" style="verticalLabelPosition=bottom;verticalAlign=top;html=1;shape=mxgraph.basic.patternFillRect;fillStyle=grid;step=5;fillStrokeWidth=0.2;fillStrokeColor=#dddddd;" parent="1" vertex="1">
          <mxGeometry x="80" y="580" width="600" height="60" as="geometry" />
        </mxCell>
        <mxCell id="GWyn577O8GgOCj4Um4mr-30" value="5-10" style="shape=rhombus;html=1;dashed=0;whiteSpace=wrap;perimeter=rhombusPerimeter;" parent="1" vertex="1">
          <mxGeometry x="120" y="585" width="60" height="50" as="geometry" />
        </mxCell>
        <mxCell id="GWyn577O8GgOCj4Um4mr-34" value="" style="rounded=0;whiteSpace=wrap;html=1;" parent="1" vertex="1">
          <mxGeometry x="710" y="30" width="120" height="440" as="geometry" />
        </mxCell>
        <mxCell id="GWyn577O8GgOCj4Um4mr-35" value="20-25" style="html=1;dashed=0;whiteSpace=wrap;" parent="1" vertex="1">
          <mxGeometry x="720" y="80" width="100" height="50" as="geometry" />
        </mxCell>
        <mxCell id="GWyn577O8GgOCj4Um4mr-36" value="25-30" style="shape=rhombus;html=1;dashed=0;whiteSpace=wrap;perimeter=rhombusPerimeter;" parent="1" vertex="1">
          <mxGeometry x="740" y="180" width="60" height="50" as="geometry" />
        </mxCell>
        <mxCell id="GWyn577O8GgOCj4Um4mr-37" value="30-35" style="shape=ellipse;html=1;dashed=0;whiteSpace=wrap;aspect=fixed;perimeter=ellipsePerimeter;" parent="1" vertex="1">
          <mxGeometry x="750" y="275" width="40" height="40" as="geometry" />
        </mxCell>
        <mxCell id="GWyn577O8GgOCj4Um4mr-38" value="35-40" style="shape=parallelogram;perimeter=parallelogramPerimeter;whiteSpace=wrap;html=1;dashed=0;" parent="1" vertex="1">
          <mxGeometry x="720" y="370" width="100" height="50" as="geometry" />
        </mxCell>
        <mxCell id="GWyn577O8GgOCj4Um4mr-39" value="" style="rounded=0;whiteSpace=wrap;html=1;" parent="1" vertex="1">
          <mxGeometry x="860" y="30" width="120" height="440" as="geometry" />
        </mxCell>
        <mxCell id="GWyn577O8GgOCj4Um4mr-40" value="20-25" style="html=1;dashed=0;whiteSpace=wrap;" parent="1" vertex="1">
          <mxGeometry x="870" y="80" width="100" height="50" as="geometry" />
        </mxCell>
        <mxCell id="GWyn577O8GgOCj4Um4mr-41" value="25-30" style="shape=rhombus;html=1;dashed=0;whiteSpace=wrap;perimeter=rhombusPerimeter;" parent="1" vertex="1">
          <mxGeometry x="890" y="180" width="60" height="50" as="geometry" />
        </mxCell>
        <mxCell id="GWyn577O8GgOCj4Um4mr-42" value="30-35" style="shape=ellipse;html=1;dashed=0;whiteSpace=wrap;aspect=fixed;perimeter=ellipsePerimeter;" parent="1" vertex="1">
          <mxGeometry x="900" y="280" width="40" height="40" as="geometry" />
        </mxCell>
        <mxCell id="GWyn577O8GgOCj4Um4mr-43" value="35-40" style="shape=parallelogram;perimeter=parallelogramPerimeter;whiteSpace=wrap;html=1;dashed=0;" parent="1" vertex="1">
          <mxGeometry x="870" y="370" width="100" height="50" as="geometry" />
        </mxCell>
        <mxCell id="GWyn577O8GgOCj4Um4mr-44" value="" style="rounded=0;whiteSpace=wrap;html=1;" parent="1" vertex="1">
          <mxGeometry x="1020" y="30" width="120" height="440" as="geometry" />
        </mxCell>
        <mxCell id="GWyn577O8GgOCj4Um4mr-45" value="25-30" style="html=1;dashed=0;whiteSpace=wrap;" parent="1" vertex="1">
          <mxGeometry x="1030" y="80" width="100" height="50" as="geometry" />
        </mxCell>
        <mxCell id="GWyn577O8GgOCj4Um4mr-46" value="30-35" style="shape=rhombus;html=1;dashed=0;whiteSpace=wrap;perimeter=rhombusPerimeter;" parent="1" vertex="1">
          <mxGeometry x="1050" y="180" width="60" height="50" as="geometry" />
        </mxCell>
        <mxCell id="GWyn577O8GgOCj4Um4mr-47" value="35-40" style="shape=ellipse;html=1;dashed=0;whiteSpace=wrap;aspect=fixed;perimeter=ellipsePerimeter;" parent="1" vertex="1">
          <mxGeometry x="1065" y="280" width="40" height="40" as="geometry" />
        </mxCell>
        <mxCell id="GWyn577O8GgOCj4Um4mr-48" value="40-45" style="shape=parallelogram;perimeter=parallelogramPerimeter;whiteSpace=wrap;html=1;dashed=0;" parent="1" vertex="1">
          <mxGeometry x="1030" y="370" width="100" height="50" as="geometry" />
        </mxCell>
        <mxCell id="GWyn577O8GgOCj4Um4mr-54" value="" style="rounded=0;whiteSpace=wrap;html=1;" parent="1" vertex="1">
          <mxGeometry x="1170" y="30" width="120" height="440" as="geometry" />
        </mxCell>
        <mxCell id="GWyn577O8GgOCj4Um4mr-55" value="25-30" style="html=1;dashed=0;whiteSpace=wrap;" parent="1" vertex="1">
          <mxGeometry x="1180" y="80" width="100" height="50" as="geometry" />
        </mxCell>
        <mxCell id="GWyn577O8GgOCj4Um4mr-56" value="30-35" style="shape=rhombus;html=1;dashed=0;whiteSpace=wrap;perimeter=rhombusPerimeter;" parent="1" vertex="1">
          <mxGeometry x="1200" y="180" width="60" height="50" as="geometry" />
        </mxCell>
        <mxCell id="GWyn577O8GgOCj4Um4mr-57" value="35-40" style="shape=ellipse;html=1;dashed=0;whiteSpace=wrap;aspect=fixed;perimeter=ellipsePerimeter;" parent="1" vertex="1">
          <mxGeometry x="1215" y="280" width="40" height="40" as="geometry" />
        </mxCell>
        <mxCell id="GWyn577O8GgOCj4Um4mr-58" value="40-45" style="shape=parallelogram;perimeter=parallelogramPerimeter;whiteSpace=wrap;html=1;dashed=0;" parent="1" vertex="1">
          <mxGeometry x="1180" y="370" width="100" height="50" as="geometry" />
        </mxCell>
        <mxCell id="GWyn577O8GgOCj4Um4mr-59" value="A" style="text;html=1;strokeColor=none;fillColor=none;align=center;verticalAlign=middle;whiteSpace=wrap;rounded=0;" parent="1" vertex="1">
          <mxGeometry x="120" y="470" width="60" height="30" as="geometry" />
        </mxCell>
        <mxCell id="GWyn577O8GgOCj4Um4mr-60" value="B" style="text;html=1;strokeColor=none;fillColor=none;align=center;verticalAlign=middle;whiteSpace=wrap;rounded=0;" parent="1" vertex="1">
          <mxGeometry x="280" y="470" width="60" height="30" as="geometry" />
        </mxCell>
        <mxCell id="GWyn577O8GgOCj4Um4mr-61" value="C" style="text;html=1;strokeColor=none;fillColor=none;align=center;verticalAlign=middle;whiteSpace=wrap;rounded=0;" parent="1" vertex="1">
          <mxGeometry x="440" y="470" width="60" height="30" as="geometry" />
        </mxCell>
        <mxCell id="GWyn577O8GgOCj4Um4mr-62" value="D" style="text;html=1;strokeColor=none;fillColor=none;align=center;verticalAlign=middle;whiteSpace=wrap;rounded=0;" parent="1" vertex="1">
          <mxGeometry x="600" y="480" width="60" height="30" as="geometry" />
        </mxCell>
        <mxCell id="GWyn577O8GgOCj4Um4mr-63" value="E" style="text;html=1;strokeColor=none;fillColor=none;align=center;verticalAlign=middle;whiteSpace=wrap;rounded=0;" parent="1" vertex="1">
          <mxGeometry x="740" y="480" width="60" height="30" as="geometry" />
        </mxCell>
        <mxCell id="GWyn577O8GgOCj4Um4mr-65" value="F" style="text;html=1;strokeColor=none;fillColor=none;align=center;verticalAlign=middle;whiteSpace=wrap;rounded=0;" parent="1" vertex="1">
          <mxGeometry x="890" y="480" width="60" height="30" as="geometry" />
        </mxCell>
        <mxCell id="GWyn577O8GgOCj4Um4mr-66" value="G" style="text;html=1;strokeColor=none;fillColor=none;align=center;verticalAlign=middle;whiteSpace=wrap;rounded=0;" parent="1" vertex="1">
          <mxGeometry x="1045" y="480" width="60" height="30" as="geometry" />
        </mxCell>
        <mxCell id="GWyn577O8GgOCj4Um4mr-67" value="H" style="text;html=1;strokeColor=none;fillColor=none;align=center;verticalAlign=middle;whiteSpace=wrap;rounded=0;" parent="1" vertex="1">
          <mxGeometry x="1195" y="480" width="60" height="30" as="geometry" />
        </mxCell>
        <mxCell id="GWyn577O8GgOCj4Um4mr-68" value="10-15" style="shape=rhombus;html=1;dashed=0;whiteSpace=wrap;perimeter=rhombusPerimeter;" parent="1" vertex="1">
          <mxGeometry x="210" y="585" width="60" height="50" as="geometry" />
        </mxCell>
        <mxCell id="GWyn577O8GgOCj4Um4mr-70" value="20-25" style="shape=rhombus;html=1;dashed=0;whiteSpace=wrap;perimeter=rhombusPerimeter;" parent="1" vertex="1">
          <mxGeometry x="430" y="585" width="60" height="50" as="geometry" />
        </mxCell>
        <mxCell id="GWyn577O8GgOCj4Um4mr-72" value="25-30" style="shape=rhombus;html=1;dashed=0;whiteSpace=wrap;perimeter=rhombusPerimeter;" parent="1" vertex="1">
          <mxGeometry x="505" y="585" width="60" height="50" as="geometry" />
        </mxCell>
        <mxCell id="4NSACW-JndKBF8pRT-ID-1" value="" style="rounded=0;whiteSpace=wrap;html=1;" parent="1" vertex="1">
          <mxGeometry x="90" y="930" width="120" height="440" as="geometry" />
        </mxCell>
        <mxCell id="4NSACW-JndKBF8pRT-ID-2" value="0-5" style="html=1;dashed=0;whiteSpace=wrap;" parent="1" vertex="1">
          <mxGeometry x="100" y="980" width="100" height="50" as="geometry" />
        </mxCell>
        <mxCell id="4NSACW-JndKBF8pRT-ID-3" value="5-45" style="shape=rhombus;html=1;dashed=0;whiteSpace=wrap;perimeter=rhombusPerimeter;fillColor=#ffe6cc;strokeColor=#d79b00;" parent="1" vertex="1">
          <mxGeometry x="120" y="1080" width="60" height="50" as="geometry" />
        </mxCell>
        <mxCell id="4NSACW-JndKBF8pRT-ID-4" value="45-50" style="shape=ellipse;html=1;dashed=0;whiteSpace=wrap;aspect=fixed;perimeter=ellipsePerimeter;" parent="1" vertex="1">
          <mxGeometry x="130" y="1180" width="40" height="40" as="geometry" />
        </mxCell>
        <mxCell id="4NSACW-JndKBF8pRT-ID-5" value="50-55" style="shape=parallelogram;perimeter=parallelogramPerimeter;whiteSpace=wrap;html=1;dashed=0;" parent="1" vertex="1">
          <mxGeometry x="100" y="1270" width="100" height="50" as="geometry" />
        </mxCell>
        <mxCell id="4NSACW-JndKBF8pRT-ID-6" value="" style="rounded=0;whiteSpace=wrap;html=1;" parent="1" vertex="1">
          <mxGeometry x="250" y="930" width="120" height="440" as="geometry" />
        </mxCell>
        <mxCell id="4NSACW-JndKBF8pRT-ID-7" value="0-5" style="html=1;dashed=0;whiteSpace=wrap;" parent="1" vertex="1">
          <mxGeometry x="260" y="980" width="100" height="50" as="geometry" />
        </mxCell>
        <mxCell id="4NSACW-JndKBF8pRT-ID-8" value="5-45" style="shape=rhombus;html=1;dashed=0;whiteSpace=wrap;perimeter=rhombusPerimeter;fillColor=#ffe6cc;strokeColor=#d79b00;" parent="1" vertex="1">
          <mxGeometry x="280" y="1080" width="60" height="50" as="geometry" />
        </mxCell>
        <mxCell id="4NSACW-JndKBF8pRT-ID-9" value="45-50" style="shape=ellipse;html=1;dashed=0;whiteSpace=wrap;aspect=fixed;perimeter=ellipsePerimeter;" parent="1" vertex="1">
          <mxGeometry x="290" y="1170" width="40" height="40" as="geometry" />
        </mxCell>
        <mxCell id="4NSACW-JndKBF8pRT-ID-10" value="50-55" style="shape=parallelogram;perimeter=parallelogramPerimeter;whiteSpace=wrap;html=1;dashed=0;" parent="1" vertex="1">
          <mxGeometry x="260" y="1270" width="100" height="50" as="geometry" />
        </mxCell>
        <mxCell id="4NSACW-JndKBF8pRT-ID-11" value="" style="rounded=0;whiteSpace=wrap;html=1;" parent="1" vertex="1">
          <mxGeometry x="410" y="930" width="120" height="440" as="geometry" />
        </mxCell>
        <mxCell id="4NSACW-JndKBF8pRT-ID-12" value="0-5" style="html=1;dashed=0;whiteSpace=wrap;" parent="1" vertex="1">
          <mxGeometry x="420" y="980" width="100" height="50" as="geometry" />
        </mxCell>
        <mxCell id="4NSACW-JndKBF8pRT-ID-13" value="45-85" style="shape=rhombus;html=1;dashed=0;whiteSpace=wrap;perimeter=rhombusPerimeter;fillColor=#ffe6cc;strokeColor=#d79b00;" parent="1" vertex="1">
          <mxGeometry x="440" y="1080" width="60" height="50" as="geometry" />
        </mxCell>
        <mxCell id="4NSACW-JndKBF8pRT-ID-14" value="85-90" style="shape=ellipse;html=1;dashed=0;whiteSpace=wrap;aspect=fixed;perimeter=ellipsePerimeter;" parent="1" vertex="1">
          <mxGeometry x="450" y="1170" width="40" height="40" as="geometry" />
        </mxCell>
        <mxCell id="4NSACW-JndKBF8pRT-ID-15" value="90-95" style="shape=parallelogram;perimeter=parallelogramPerimeter;whiteSpace=wrap;html=1;dashed=0;" parent="1" vertex="1">
          <mxGeometry x="420" y="1270" width="100" height="50" as="geometry" />
        </mxCell>
        <mxCell id="4NSACW-JndKBF8pRT-ID-16" value="" style="rounded=0;whiteSpace=wrap;html=1;" parent="1" vertex="1">
          <mxGeometry x="570" y="930" width="120" height="440" as="geometry" />
        </mxCell>
        <mxCell id="4NSACW-JndKBF8pRT-ID-17" value="0-5" style="html=1;dashed=0;whiteSpace=wrap;" parent="1" vertex="1">
          <mxGeometry x="580" y="980" width="100" height="50" as="geometry" />
        </mxCell>
        <mxCell id="4NSACW-JndKBF8pRT-ID-18" value="45-85" style="shape=rhombus;html=1;dashed=0;whiteSpace=wrap;perimeter=rhombusPerimeter;fillColor=#ffe6cc;strokeColor=#d79b00;" parent="1" vertex="1">
          <mxGeometry x="600" y="1080" width="60" height="50" as="geometry" />
        </mxCell>
        <mxCell id="4NSACW-JndKBF8pRT-ID-19" value="85-90" style="shape=ellipse;html=1;dashed=0;whiteSpace=wrap;aspect=fixed;perimeter=ellipsePerimeter;" parent="1" vertex="1">
          <mxGeometry x="605" y="1170" width="50" height="50" as="geometry" />
        </mxCell>
        <mxCell id="4NSACW-JndKBF8pRT-ID-20" value="90-95" style="shape=parallelogram;perimeter=parallelogramPerimeter;whiteSpace=wrap;html=1;dashed=0;" parent="1" vertex="1">
          <mxGeometry x="580" y="1270" width="100" height="50" as="geometry" />
        </mxCell>
        <mxCell id="4NSACW-JndKBF8pRT-ID-21" value="" style="verticalLabelPosition=bottom;verticalAlign=top;html=1;shape=mxgraph.basic.patternFillRect;fillStyle=grid;step=5;fillStrokeWidth=0.2;fillStrokeColor=#dddddd;" parent="1" vertex="1">
          <mxGeometry x="80" y="1485" width="600" height="60" as="geometry" />
        </mxCell>
        <mxCell id="4NSACW-JndKBF8pRT-ID-23" value="5-45" style="shape=rhombus;html=1;dashed=0;whiteSpace=wrap;perimeter=rhombusPerimeter;fillColor=#ffe6cc;strokeColor=#d79b00;" parent="1" vertex="1">
          <mxGeometry x="120" y="1490" width="60" height="50" as="geometry" />
        </mxCell>
        <mxCell id="4NSACW-JndKBF8pRT-ID-25" value="" style="rounded=0;whiteSpace=wrap;html=1;" parent="1" vertex="1">
          <mxGeometry x="710" y="930" width="120" height="440" as="geometry" />
        </mxCell>
        <mxCell id="4NSACW-JndKBF8pRT-ID-26" value="55-60" style="html=1;dashed=0;whiteSpace=wrap;" parent="1" vertex="1">
          <mxGeometry x="720" y="980" width="100" height="50" as="geometry" />
        </mxCell>
        <mxCell id="4NSACW-JndKBF8pRT-ID-27" value="85-90" style="shape=rhombus;html=1;dashed=0;whiteSpace=wrap;perimeter=rhombusPerimeter;" parent="1" vertex="1">
          <mxGeometry x="740" y="1080" width="60" height="50" as="geometry" />
        </mxCell>
        <mxCell id="4NSACW-JndKBF8pRT-ID-28" value="90-95" style="shape=ellipse;html=1;dashed=0;whiteSpace=wrap;aspect=fixed;perimeter=ellipsePerimeter;" parent="1" vertex="1">
          <mxGeometry x="750" y="1175" width="40" height="40" as="geometry" />
        </mxCell>
        <mxCell id="4NSACW-JndKBF8pRT-ID-29" value="95-100" style="shape=parallelogram;perimeter=parallelogramPerimeter;whiteSpace=wrap;html=1;dashed=0;" parent="1" vertex="1">
          <mxGeometry x="720" y="1270" width="100" height="50" as="geometry" />
        </mxCell>
        <mxCell id="4NSACW-JndKBF8pRT-ID-30" value="" style="rounded=0;whiteSpace=wrap;html=1;" parent="1" vertex="1">
          <mxGeometry x="860" y="930" width="120" height="440" as="geometry" />
        </mxCell>
        <mxCell id="4NSACW-JndKBF8pRT-ID-31" value="55-60" style="html=1;dashed=0;whiteSpace=wrap;" parent="1" vertex="1">
          <mxGeometry x="870" y="980" width="100" height="50" as="geometry" />
        </mxCell>
        <mxCell id="4NSACW-JndKBF8pRT-ID-32" value="85-90" style="shape=rhombus;html=1;dashed=0;whiteSpace=wrap;perimeter=rhombusPerimeter;" parent="1" vertex="1">
          <mxGeometry x="890" y="1080" width="60" height="50" as="geometry" />
        </mxCell>
        <mxCell id="4NSACW-JndKBF8pRT-ID-33" value="90-95" style="shape=ellipse;html=1;dashed=0;whiteSpace=wrap;aspect=fixed;perimeter=ellipsePerimeter;" parent="1" vertex="1">
          <mxGeometry x="900" y="1180" width="40" height="40" as="geometry" />
        </mxCell>
        <mxCell id="4NSACW-JndKBF8pRT-ID-34" value="95-100" style="shape=parallelogram;perimeter=parallelogramPerimeter;whiteSpace=wrap;html=1;dashed=0;" parent="1" vertex="1">
          <mxGeometry x="870" y="1270" width="100" height="50" as="geometry" />
        </mxCell>
        <mxCell id="4NSACW-JndKBF8pRT-ID-35" value="" style="rounded=0;whiteSpace=wrap;html=1;" parent="1" vertex="1">
          <mxGeometry x="1020" y="930" width="120" height="440" as="geometry" />
        </mxCell>
        <mxCell id="4NSACW-JndKBF8pRT-ID-36" value="95-100" style="html=1;dashed=0;whiteSpace=wrap;" parent="1" vertex="1">
          <mxGeometry x="1030" y="980" width="100" height="50" as="geometry" />
        </mxCell>
        <mxCell id="4NSACW-JndKBF8pRT-ID-37" value="100-105" style="shape=rhombus;html=1;dashed=0;whiteSpace=wrap;perimeter=rhombusPerimeter;" parent="1" vertex="1">
          <mxGeometry x="1050" y="1080" width="60" height="50" as="geometry" />
        </mxCell>
        <mxCell id="4NSACW-JndKBF8pRT-ID-38" value="105-110" style="shape=ellipse;html=1;dashed=0;whiteSpace=wrap;aspect=fixed;perimeter=ellipsePerimeter;" parent="1" vertex="1">
          <mxGeometry x="1050" y="1180" width="55" height="55" as="geometry" />
        </mxCell>
        <mxCell id="4NSACW-JndKBF8pRT-ID-39" value="110-115" style="shape=parallelogram;perimeter=parallelogramPerimeter;whiteSpace=wrap;html=1;dashed=0;" parent="1" vertex="1">
          <mxGeometry x="1030" y="1270" width="100" height="50" as="geometry" />
        </mxCell>
        <mxCell id="4NSACW-JndKBF8pRT-ID-40" value="" style="rounded=0;whiteSpace=wrap;html=1;" parent="1" vertex="1">
          <mxGeometry x="1170" y="930" width="120" height="440" as="geometry" />
        </mxCell>
        <mxCell id="4NSACW-JndKBF8pRT-ID-41" value="95-100" style="html=1;dashed=0;whiteSpace=wrap;" parent="1" vertex="1">
          <mxGeometry x="1180" y="980" width="100" height="50" as="geometry" />
        </mxCell>
        <mxCell id="4NSACW-JndKBF8pRT-ID-42" value="100-105" style="shape=rhombus;html=1;dashed=0;whiteSpace=wrap;perimeter=rhombusPerimeter;" parent="1" vertex="1">
          <mxGeometry x="1200" y="1080" width="60" height="50" as="geometry" />
        </mxCell>
        <mxCell id="4NSACW-JndKBF8pRT-ID-43" value="105-110" style="shape=ellipse;html=1;dashed=0;whiteSpace=wrap;aspect=fixed;perimeter=ellipsePerimeter;" parent="1" vertex="1">
          <mxGeometry x="1200" y="1175" width="55" height="55" as="geometry" />
        </mxCell>
        <mxCell id="4NSACW-JndKBF8pRT-ID-44" value="110-115" style="shape=parallelogram;perimeter=parallelogramPerimeter;whiteSpace=wrap;html=1;dashed=0;" parent="1" vertex="1">
          <mxGeometry x="1180" y="1270" width="100" height="50" as="geometry" />
        </mxCell>
        <mxCell id="4NSACW-JndKBF8pRT-ID-45" value="A" style="text;html=1;strokeColor=none;fillColor=none;align=center;verticalAlign=middle;whiteSpace=wrap;rounded=0;" parent="1" vertex="1">
          <mxGeometry x="120" y="1370" width="60" height="30" as="geometry" />
        </mxCell>
        <mxCell id="4NSACW-JndKBF8pRT-ID-46" value="B" style="text;html=1;strokeColor=none;fillColor=none;align=center;verticalAlign=middle;whiteSpace=wrap;rounded=0;" parent="1" vertex="1">
          <mxGeometry x="280" y="1370" width="60" height="30" as="geometry" />
        </mxCell>
        <mxCell id="4NSACW-JndKBF8pRT-ID-47" value="C" style="text;html=1;strokeColor=none;fillColor=none;align=center;verticalAlign=middle;whiteSpace=wrap;rounded=0;" parent="1" vertex="1">
          <mxGeometry x="440" y="1370" width="60" height="30" as="geometry" />
        </mxCell>
        <mxCell id="4NSACW-JndKBF8pRT-ID-48" value="D" style="text;html=1;strokeColor=none;fillColor=none;align=center;verticalAlign=middle;whiteSpace=wrap;rounded=0;" parent="1" vertex="1">
          <mxGeometry x="600" y="1380" width="60" height="30" as="geometry" />
        </mxCell>
        <mxCell id="4NSACW-JndKBF8pRT-ID-49" value="E" style="text;html=1;strokeColor=none;fillColor=none;align=center;verticalAlign=middle;whiteSpace=wrap;rounded=0;" parent="1" vertex="1">
          <mxGeometry x="740" y="1380" width="60" height="30" as="geometry" />
        </mxCell>
        <mxCell id="4NSACW-JndKBF8pRT-ID-50" value="F" style="text;html=1;strokeColor=none;fillColor=none;align=center;verticalAlign=middle;whiteSpace=wrap;rounded=0;" parent="1" vertex="1">
          <mxGeometry x="890" y="1380" width="60" height="30" as="geometry" />
        </mxCell>
        <mxCell id="4NSACW-JndKBF8pRT-ID-51" value="G" style="text;html=1;strokeColor=none;fillColor=none;align=center;verticalAlign=middle;whiteSpace=wrap;rounded=0;" parent="1" vertex="1">
          <mxGeometry x="1045" y="1380" width="60" height="30" as="geometry" />
        </mxCell>
        <mxCell id="4NSACW-JndKBF8pRT-ID-52" value="H" style="text;html=1;strokeColor=none;fillColor=none;align=center;verticalAlign=middle;whiteSpace=wrap;rounded=0;" parent="1" vertex="1">
          <mxGeometry x="1195" y="1380" width="60" height="30" as="geometry" />
        </mxCell>
        <mxCell id="4NSACW-JndKBF8pRT-ID-53" value="45-85" style="shape=rhombus;html=1;dashed=0;whiteSpace=wrap;perimeter=rhombusPerimeter;fillColor=#ffe6cc;strokeColor=#d79b00;" parent="1" vertex="1">
          <mxGeometry x="210" y="1490" width="60" height="50" as="geometry" />
        </mxCell>
        <mxCell id="4NSACW-JndKBF8pRT-ID-55" value="85-90" style="shape=rhombus;html=1;dashed=0;whiteSpace=wrap;perimeter=rhombusPerimeter;" parent="1" vertex="1">
          <mxGeometry x="430" y="1490" width="60" height="50" as="geometry" />
        </mxCell>
        <mxCell id="4NSACW-JndKBF8pRT-ID-57" value="100-105" style="shape=rhombus;html=1;dashed=0;whiteSpace=wrap;perimeter=rhombusPerimeter;" parent="1" vertex="1">
          <mxGeometry x="500" y="1490" width="60" height="50" as="geometry" />
        </mxCell>
        <mxCell id="4NSACW-JndKBF8pRT-ID-59" value="" style="rounded=0;whiteSpace=wrap;html=1;" parent="1" vertex="1">
          <mxGeometry x="90" y="1730" width="120" height="440" as="geometry" />
        </mxCell>
        <mxCell id="4NSACW-JndKBF8pRT-ID-60" value="0-5" style="html=1;dashed=0;whiteSpace=wrap;" parent="1" vertex="1">
          <mxGeometry x="100" y="1780" width="100" height="50" as="geometry" />
        </mxCell>
        <mxCell id="4NSACW-JndKBF8pRT-ID-61" value="5-45" style="shape=rhombus;html=1;dashed=0;whiteSpace=wrap;perimeter=rhombusPerimeter;fillColor=#ffe6cc;strokeColor=#d79b00;" parent="1" vertex="1">
          <mxGeometry x="120" y="1880" width="60" height="50" as="geometry" />
        </mxCell>
        <mxCell id="4NSACW-JndKBF8pRT-ID-62" value="45-50" style="shape=ellipse;html=1;dashed=0;whiteSpace=wrap;aspect=fixed;perimeter=ellipsePerimeter;" parent="1" vertex="1">
          <mxGeometry x="130" y="1980" width="40" height="40" as="geometry" />
        </mxCell>
        <mxCell id="4NSACW-JndKBF8pRT-ID-63" value="50-55" style="shape=parallelogram;perimeter=parallelogramPerimeter;whiteSpace=wrap;html=1;dashed=0;" parent="1" vertex="1">
          <mxGeometry x="100" y="2070" width="100" height="50" as="geometry" />
        </mxCell>
        <mxCell id="4NSACW-JndKBF8pRT-ID-64" value="" style="rounded=0;whiteSpace=wrap;html=1;" parent="1" vertex="1">
          <mxGeometry x="250" y="1730" width="120" height="440" as="geometry" />
        </mxCell>
        <mxCell id="4NSACW-JndKBF8pRT-ID-65" value="0-5" style="html=1;dashed=0;whiteSpace=wrap;" parent="1" vertex="1">
          <mxGeometry x="260" y="1780" width="100" height="50" as="geometry" />
        </mxCell>
        <mxCell id="4NSACW-JndKBF8pRT-ID-66" value="45-85" style="shape=rhombus;html=1;dashed=0;whiteSpace=wrap;perimeter=rhombusPerimeter;fillColor=#ffe6cc;strokeColor=#d79b00;" parent="1" vertex="1">
          <mxGeometry x="280" y="1880" width="60" height="50" as="geometry" />
        </mxCell>
        <mxCell id="4NSACW-JndKBF8pRT-ID-67" value="85-90" style="shape=ellipse;html=1;dashed=0;whiteSpace=wrap;aspect=fixed;perimeter=ellipsePerimeter;" parent="1" vertex="1">
          <mxGeometry x="290" y="1970" width="40" height="40" as="geometry" />
        </mxCell>
        <mxCell id="4NSACW-JndKBF8pRT-ID-68" value="90-95" style="shape=parallelogram;perimeter=parallelogramPerimeter;whiteSpace=wrap;html=1;dashed=0;" parent="1" vertex="1">
          <mxGeometry x="260" y="2070" width="100" height="50" as="geometry" />
        </mxCell>
        <mxCell id="4NSACW-JndKBF8pRT-ID-69" value="" style="rounded=0;whiteSpace=wrap;html=1;" parent="1" vertex="1">
          <mxGeometry x="410" y="1730" width="120" height="440" as="geometry" />
        </mxCell>
        <mxCell id="4NSACW-JndKBF8pRT-ID-70" value="0-5" style="html=1;dashed=0;whiteSpace=wrap;" parent="1" vertex="1">
          <mxGeometry x="420" y="1780" width="100" height="50" as="geometry" />
        </mxCell>
        <mxCell id="4NSACW-JndKBF8pRT-ID-71" value="85-125" style="shape=rhombus;html=1;dashed=0;whiteSpace=wrap;perimeter=rhombusPerimeter;fillColor=#ffe6cc;strokeColor=#d79b00;" parent="1" vertex="1">
          <mxGeometry x="440" y="1880" width="60" height="50" as="geometry" />
        </mxCell>
        <mxCell id="4NSACW-JndKBF8pRT-ID-72" value="125-130" style="shape=ellipse;html=1;dashed=0;whiteSpace=wrap;aspect=fixed;perimeter=ellipsePerimeter;" parent="1" vertex="1">
          <mxGeometry x="450" y="1970" width="50" height="50" as="geometry" />
        </mxCell>
        <mxCell id="4NSACW-JndKBF8pRT-ID-73" value="130-135" style="shape=parallelogram;perimeter=parallelogramPerimeter;whiteSpace=wrap;html=1;dashed=0;" parent="1" vertex="1">
          <mxGeometry x="420" y="2070" width="100" height="50" as="geometry" />
        </mxCell>
        <mxCell id="4NSACW-JndKBF8pRT-ID-74" value="" style="rounded=0;whiteSpace=wrap;html=1;" parent="1" vertex="1">
          <mxGeometry x="570" y="1730" width="120" height="440" as="geometry" />
        </mxCell>
        <mxCell id="4NSACW-JndKBF8pRT-ID-75" value="0-5" style="html=1;dashed=0;whiteSpace=wrap;" parent="1" vertex="1">
          <mxGeometry x="580" y="1780" width="100" height="50" as="geometry" />
        </mxCell>
        <mxCell id="4NSACW-JndKBF8pRT-ID-76" value="125-165" style="shape=rhombus;html=1;dashed=0;whiteSpace=wrap;perimeter=rhombusPerimeter;fillColor=#ffe6cc;strokeColor=#d79b00;" parent="1" vertex="1">
          <mxGeometry x="600" y="1880" width="60" height="50" as="geometry" />
        </mxCell>
        <mxCell id="4NSACW-JndKBF8pRT-ID-77" value="165-170" style="shape=ellipse;html=1;dashed=0;whiteSpace=wrap;aspect=fixed;perimeter=ellipsePerimeter;" parent="1" vertex="1">
          <mxGeometry x="605" y="1970" width="50" height="50" as="geometry" />
        </mxCell>
        <mxCell id="4NSACW-JndKBF8pRT-ID-78" value="170-175" style="shape=parallelogram;perimeter=parallelogramPerimeter;whiteSpace=wrap;html=1;dashed=0;" parent="1" vertex="1">
          <mxGeometry x="580" y="2070" width="100" height="50" as="geometry" />
        </mxCell>
        <mxCell id="4NSACW-JndKBF8pRT-ID-79" value="" style="verticalLabelPosition=bottom;verticalAlign=top;html=1;shape=mxgraph.basic.patternFillRect;fillStyle=grid;step=5;fillStrokeWidth=0.2;fillStrokeColor=#dddddd;" parent="1" vertex="1">
          <mxGeometry x="80" y="2280" width="600" height="60" as="geometry" />
        </mxCell>
        <mxCell id="4NSACW-JndKBF8pRT-ID-80" value="" style="verticalLabelPosition=bottom;verticalAlign=top;html=1;shape=mxgraph.basic.patternFillRect;fillStyle=grid;step=5;fillStrokeWidth=0.2;fillStrokeColor=#dddddd;" parent="1" vertex="1">
          <mxGeometry x="80" y="2390" width="600" height="60" as="geometry" />
        </mxCell>
        <mxCell id="4NSACW-JndKBF8pRT-ID-83" value="" style="rounded=0;whiteSpace=wrap;html=1;" parent="1" vertex="1">
          <mxGeometry x="710" y="1730" width="120" height="440" as="geometry" />
        </mxCell>
        <mxCell id="4NSACW-JndKBF8pRT-ID-84" value="55-60" style="html=1;dashed=0;whiteSpace=wrap;" parent="1" vertex="1">
          <mxGeometry x="720" y="1780" width="100" height="50" as="geometry" />
        </mxCell>
        <mxCell id="4NSACW-JndKBF8pRT-ID-85" value="60-65" style="shape=rhombus;html=1;dashed=0;whiteSpace=wrap;perimeter=rhombusPerimeter;" parent="1" vertex="1">
          <mxGeometry x="740" y="1880" width="60" height="50" as="geometry" />
        </mxCell>
        <mxCell id="4NSACW-JndKBF8pRT-ID-86" value="65-70" style="shape=ellipse;html=1;dashed=0;whiteSpace=wrap;aspect=fixed;perimeter=ellipsePerimeter;" parent="1" vertex="1">
          <mxGeometry x="750" y="1975" width="40" height="40" as="geometry" />
        </mxCell>
        <mxCell id="4NSACW-JndKBF8pRT-ID-87" value="70-75" style="shape=parallelogram;perimeter=parallelogramPerimeter;whiteSpace=wrap;html=1;dashed=0;" parent="1" vertex="1">
          <mxGeometry x="720" y="2070" width="100" height="50" as="geometry" />
        </mxCell>
        <mxCell id="4NSACW-JndKBF8pRT-ID-88" value="" style="rounded=0;whiteSpace=wrap;html=1;" parent="1" vertex="1">
          <mxGeometry x="860" y="1730" width="120" height="440" as="geometry" />
        </mxCell>
        <mxCell id="4NSACW-JndKBF8pRT-ID-89" value="55-60" style="html=1;dashed=0;whiteSpace=wrap;" parent="1" vertex="1">
          <mxGeometry x="870" y="1780" width="100" height="50" as="geometry" />
        </mxCell>
        <mxCell id="4NSACW-JndKBF8pRT-ID-90" value="60-65" style="shape=rhombus;html=1;dashed=0;whiteSpace=wrap;perimeter=rhombusPerimeter;" parent="1" vertex="1">
          <mxGeometry x="890" y="1880" width="60" height="50" as="geometry" />
        </mxCell>
        <mxCell id="4NSACW-JndKBF8pRT-ID-91" value="65-70" style="shape=ellipse;html=1;dashed=0;whiteSpace=wrap;aspect=fixed;perimeter=ellipsePerimeter;" parent="1" vertex="1">
          <mxGeometry x="900" y="1980" width="40" height="40" as="geometry" />
        </mxCell>
        <mxCell id="4NSACW-JndKBF8pRT-ID-92" value="70-75" style="shape=parallelogram;perimeter=parallelogramPerimeter;whiteSpace=wrap;html=1;dashed=0;" parent="1" vertex="1">
          <mxGeometry x="870" y="2070" width="100" height="50" as="geometry" />
        </mxCell>
        <mxCell id="4NSACW-JndKBF8pRT-ID-93" value="" style="rounded=0;whiteSpace=wrap;html=1;" parent="1" vertex="1">
          <mxGeometry x="1020" y="1730" width="120" height="440" as="geometry" />
        </mxCell>
        <mxCell id="4NSACW-JndKBF8pRT-ID-94" value="75-80" style="html=1;dashed=0;whiteSpace=wrap;" parent="1" vertex="1">
          <mxGeometry x="1030" y="1780" width="100" height="50" as="geometry" />
        </mxCell>
        <mxCell id="4NSACW-JndKBF8pRT-ID-95" value="80-85" style="shape=rhombus;html=1;dashed=0;whiteSpace=wrap;perimeter=rhombusPerimeter;" parent="1" vertex="1">
          <mxGeometry x="1050" y="1880" width="60" height="50" as="geometry" />
        </mxCell>
        <mxCell id="4NSACW-JndKBF8pRT-ID-96" value="85-90" style="shape=ellipse;html=1;dashed=0;whiteSpace=wrap;aspect=fixed;perimeter=ellipsePerimeter;" parent="1" vertex="1">
          <mxGeometry x="1050" y="1980" width="55" height="55" as="geometry" />
        </mxCell>
        <mxCell id="4NSACW-JndKBF8pRT-ID-97" value="90-95" style="shape=parallelogram;perimeter=parallelogramPerimeter;whiteSpace=wrap;html=1;dashed=0;" parent="1" vertex="1">
          <mxGeometry x="1030" y="2070" width="100" height="50" as="geometry" />
        </mxCell>
        <mxCell id="4NSACW-JndKBF8pRT-ID-103" value="A" style="text;html=1;strokeColor=none;fillColor=none;align=center;verticalAlign=middle;whiteSpace=wrap;rounded=0;" parent="1" vertex="1">
          <mxGeometry x="120" y="2170" width="60" height="30" as="geometry" />
        </mxCell>
        <mxCell id="4NSACW-JndKBF8pRT-ID-104" value="B" style="text;html=1;strokeColor=none;fillColor=none;align=center;verticalAlign=middle;whiteSpace=wrap;rounded=0;" parent="1" vertex="1">
          <mxGeometry x="280" y="2170" width="60" height="30" as="geometry" />
        </mxCell>
        <mxCell id="4NSACW-JndKBF8pRT-ID-105" value="C" style="text;html=1;strokeColor=none;fillColor=none;align=center;verticalAlign=middle;whiteSpace=wrap;rounded=0;" parent="1" vertex="1">
          <mxGeometry x="440" y="2170" width="60" height="30" as="geometry" />
        </mxCell>
        <mxCell id="4NSACW-JndKBF8pRT-ID-106" value="D" style="text;html=1;strokeColor=none;fillColor=none;align=center;verticalAlign=middle;whiteSpace=wrap;rounded=0;" parent="1" vertex="1">
          <mxGeometry x="600" y="2180" width="60" height="30" as="geometry" />
        </mxCell>
        <mxCell id="4NSACW-JndKBF8pRT-ID-107" value="E" style="text;html=1;strokeColor=none;fillColor=none;align=center;verticalAlign=middle;whiteSpace=wrap;rounded=0;" parent="1" vertex="1">
          <mxGeometry x="740" y="2180" width="60" height="30" as="geometry" />
        </mxCell>
        <mxCell id="4NSACW-JndKBF8pRT-ID-108" value="F" style="text;html=1;strokeColor=none;fillColor=none;align=center;verticalAlign=middle;whiteSpace=wrap;rounded=0;" parent="1" vertex="1">
          <mxGeometry x="890" y="2180" width="60" height="30" as="geometry" />
        </mxCell>
        <mxCell id="4NSACW-JndKBF8pRT-ID-109" value="G" style="text;html=1;strokeColor=none;fillColor=none;align=center;verticalAlign=middle;whiteSpace=wrap;rounded=0;" parent="1" vertex="1">
          <mxGeometry x="1045" y="2180" width="60" height="30" as="geometry" />
        </mxCell>
        <mxCell id="4NSACW-JndKBF8pRT-ID-119" value="" style="verticalLabelPosition=bottom;verticalAlign=top;html=1;shape=mxgraph.basic.patternFillRect;fillStyle=grid;step=5;fillStrokeWidth=0.2;fillStrokeColor=#dddddd;fillColor=#e1d5e7;strokeColor=#9673a6;" parent="1" vertex="1">
          <mxGeometry x="80" y="2500" width="600" height="60" as="geometry" />
        </mxCell>
        <mxCell id="4NSACW-JndKBF8pRT-ID-125" value="" style="rounded=0;whiteSpace=wrap;html=1;" parent="1" vertex="1">
          <mxGeometry x="1165" y="1730" width="120" height="440" as="geometry" />
        </mxCell>
        <mxCell id="4NSACW-JndKBF8pRT-ID-126" value="75-80" style="html=1;dashed=0;whiteSpace=wrap;" parent="1" vertex="1">
          <mxGeometry x="1175" y="1780" width="100" height="50" as="geometry" />
        </mxCell>
        <mxCell id="4NSACW-JndKBF8pRT-ID-127" value="80-85" style="shape=rhombus;html=1;dashed=0;whiteSpace=wrap;perimeter=rhombusPerimeter;" parent="1" vertex="1">
          <mxGeometry x="1195" y="1880" width="60" height="50" as="geometry" />
        </mxCell>
        <mxCell id="4NSACW-JndKBF8pRT-ID-128" value="85-90" style="shape=ellipse;html=1;dashed=0;whiteSpace=wrap;aspect=fixed;perimeter=ellipsePerimeter;" parent="1" vertex="1">
          <mxGeometry x="1195" y="1980" width="55" height="55" as="geometry" />
        </mxCell>
        <mxCell id="4NSACW-JndKBF8pRT-ID-129" value="90-95" style="shape=parallelogram;perimeter=parallelogramPerimeter;whiteSpace=wrap;html=1;dashed=0;" parent="1" vertex="1">
          <mxGeometry x="1175" y="2070" width="100" height="50" as="geometry" />
        </mxCell>
        <mxCell id="4NSACW-JndKBF8pRT-ID-130" value="H" style="text;html=1;strokeColor=none;fillColor=none;align=center;verticalAlign=middle;whiteSpace=wrap;rounded=0;" parent="1" vertex="1">
          <mxGeometry x="1190" y="2180" width="60" height="30" as="geometry" />
        </mxCell>
        <mxCell id="4NSACW-JndKBF8pRT-ID-131" value="5-45" style="shape=rhombus;html=1;dashed=0;whiteSpace=wrap;perimeter=rhombusPerimeter;fillColor=#ffe6cc;strokeColor=#d79b00;" parent="1" vertex="1">
          <mxGeometry x="90" y="2510" width="60" height="50" as="geometry" />
        </mxCell>
        <mxCell id="4NSACW-JndKBF8pRT-ID-132" value="45-85" style="shape=rhombus;html=1;dashed=0;whiteSpace=wrap;perimeter=rhombusPerimeter;fillColor=#ffe6cc;strokeColor=#d79b00;" parent="1" vertex="1">
          <mxGeometry x="220" y="2510" width="60" height="50" as="geometry" />
        </mxCell>
        <mxCell id="4NSACW-JndKBF8pRT-ID-133" value="85-125" style="shape=rhombus;html=1;dashed=0;whiteSpace=wrap;perimeter=rhombusPerimeter;fillColor=#ffe6cc;strokeColor=#d79b00;" parent="1" vertex="1">
          <mxGeometry x="395" y="2510" width="60" height="50" as="geometry" />
        </mxCell>
        <mxCell id="4NSACW-JndKBF8pRT-ID-134" value="125-165" style="shape=rhombus;html=1;dashed=0;whiteSpace=wrap;perimeter=rhombusPerimeter;fillColor=#ffe6cc;strokeColor=#d79b00;" parent="1" vertex="1">
          <mxGeometry x="550" y="2510" width="60" height="50" as="geometry" />
        </mxCell>
        <mxCell id="4NSACW-JndKBF8pRT-ID-135" value="60-65" style="shape=rhombus;html=1;dashed=0;whiteSpace=wrap;perimeter=rhombusPerimeter;" parent="1" vertex="1">
          <mxGeometry x="160" y="2290" width="60" height="50" as="geometry" />
        </mxCell>
        <mxCell id="4NSACW-JndKBF8pRT-ID-136" value="60-65" style="shape=rhombus;html=1;dashed=0;whiteSpace=wrap;perimeter=rhombusPerimeter;" parent="1" vertex="1">
          <mxGeometry x="160" y="2400" width="60" height="50" as="geometry" />
        </mxCell>
        <mxCell id="4NSACW-JndKBF8pRT-ID-137" value="80-85" style="shape=rhombus;html=1;dashed=0;whiteSpace=wrap;perimeter=rhombusPerimeter;" parent="1" vertex="1">
          <mxGeometry x="220" y="2290" width="60" height="50" as="geometry" />
        </mxCell>
        <mxCell id="4NSACW-JndKBF8pRT-ID-138" value="80-85" style="shape=rhombus;html=1;dashed=0;whiteSpace=wrap;perimeter=rhombusPerimeter;" parent="1" vertex="1">
          <mxGeometry x="220" y="2400" width="60" height="50" as="geometry" />
        </mxCell>
        <mxCell id="4NSACW-JndKBF8pRT-ID-199" value="" style="rounded=0;whiteSpace=wrap;html=1;fillColor=#d5e8d4;strokeColor=#82b366;" parent="1" vertex="1">
          <mxGeometry x="85" y="2660" width="120" height="440" as="geometry" />
        </mxCell>
        <mxCell id="4NSACW-JndKBF8pRT-ID-200" value="0-5" style="html=1;dashed=0;whiteSpace=wrap;" parent="1" vertex="1">
          <mxGeometry x="95" y="2710" width="100" height="50" as="geometry" />
        </mxCell>
        <mxCell id="4NSACW-JndKBF8pRT-ID-201" value="5-45" style="shape=rhombus;html=1;dashed=0;whiteSpace=wrap;perimeter=rhombusPerimeter;fillColor=#ffe6cc;strokeColor=#d79b00;" parent="1" vertex="1">
          <mxGeometry x="115" y="2810" width="60" height="50" as="geometry" />
        </mxCell>
        <mxCell id="4NSACW-JndKBF8pRT-ID-202" value="45-50" style="shape=ellipse;html=1;dashed=0;whiteSpace=wrap;aspect=fixed;perimeter=ellipsePerimeter;" parent="1" vertex="1">
          <mxGeometry x="125" y="2910" width="40" height="40" as="geometry" />
        </mxCell>
        <mxCell id="4NSACW-JndKBF8pRT-ID-203" value="50-55" style="shape=parallelogram;perimeter=parallelogramPerimeter;whiteSpace=wrap;html=1;dashed=0;" parent="1" vertex="1">
          <mxGeometry x="95" y="3000" width="100" height="50" as="geometry" />
        </mxCell>
        <mxCell id="4NSACW-JndKBF8pRT-ID-204" value="" style="rounded=0;whiteSpace=wrap;html=1;fillColor=#d5e8d4;strokeColor=#82b366;" parent="1" vertex="1">
          <mxGeometry x="245" y="2660" width="120" height="440" as="geometry" />
        </mxCell>
        <mxCell id="4NSACW-JndKBF8pRT-ID-205" value="0-5" style="html=1;dashed=0;whiteSpace=wrap;" parent="1" vertex="1">
          <mxGeometry x="255" y="2710" width="100" height="50" as="geometry" />
        </mxCell>
        <mxCell id="4NSACW-JndKBF8pRT-ID-206" value="45-85" style="shape=rhombus;html=1;dashed=0;whiteSpace=wrap;perimeter=rhombusPerimeter;fillColor=#ffe6cc;strokeColor=#d79b00;" parent="1" vertex="1">
          <mxGeometry x="275" y="2810" width="60" height="50" as="geometry" />
        </mxCell>
        <mxCell id="4NSACW-JndKBF8pRT-ID-207" value="85-90" style="shape=ellipse;html=1;dashed=0;whiteSpace=wrap;aspect=fixed;perimeter=ellipsePerimeter;" parent="1" vertex="1">
          <mxGeometry x="285" y="2900" width="40" height="40" as="geometry" />
        </mxCell>
        <mxCell id="4NSACW-JndKBF8pRT-ID-208" value="90-95" style="shape=parallelogram;perimeter=parallelogramPerimeter;whiteSpace=wrap;html=1;dashed=0;" parent="1" vertex="1">
          <mxGeometry x="255" y="3000" width="100" height="50" as="geometry" />
        </mxCell>
        <mxCell id="4NSACW-JndKBF8pRT-ID-209" value="" style="rounded=0;whiteSpace=wrap;html=1;fillColor=#d5e8d4;strokeColor=#82b366;" parent="1" vertex="1">
          <mxGeometry x="405" y="2660" width="120" height="440" as="geometry" />
        </mxCell>
        <mxCell id="4NSACW-JndKBF8pRT-ID-210" value="55-60" style="html=1;dashed=0;whiteSpace=wrap;" parent="1" vertex="1">
          <mxGeometry x="415" y="2710" width="100" height="50" as="geometry" />
        </mxCell>
        <mxCell id="4NSACW-JndKBF8pRT-ID-211" value="85-125" style="shape=rhombus;html=1;dashed=0;whiteSpace=wrap;perimeter=rhombusPerimeter;fillColor=#ffe6cc;strokeColor=#d79b00;" parent="1" vertex="1">
          <mxGeometry x="435" y="2810" width="60" height="50" as="geometry" />
        </mxCell>
        <mxCell id="4NSACW-JndKBF8pRT-ID-212" value="125-130" style="shape=ellipse;html=1;dashed=0;whiteSpace=wrap;aspect=fixed;perimeter=ellipsePerimeter;" parent="1" vertex="1">
          <mxGeometry x="445" y="2900" width="50" height="50" as="geometry" />
        </mxCell>
        <mxCell id="4NSACW-JndKBF8pRT-ID-213" value="130-135" style="shape=parallelogram;perimeter=parallelogramPerimeter;whiteSpace=wrap;html=1;dashed=0;" parent="1" vertex="1">
          <mxGeometry x="415" y="3000" width="100" height="50" as="geometry" />
        </mxCell>
        <mxCell id="4NSACW-JndKBF8pRT-ID-214" value="" style="rounded=0;whiteSpace=wrap;html=1;fillColor=#d5e8d4;strokeColor=#82b366;" parent="1" vertex="1">
          <mxGeometry x="565" y="2660" width="120" height="440" as="geometry" />
        </mxCell>
        <mxCell id="4NSACW-JndKBF8pRT-ID-215" value="95-100" style="html=1;dashed=0;whiteSpace=wrap;" parent="1" vertex="1">
          <mxGeometry x="575" y="2710" width="100" height="50" as="geometry" />
        </mxCell>
        <mxCell id="4NSACW-JndKBF8pRT-ID-216" value="125-165" style="shape=rhombus;html=1;dashed=0;whiteSpace=wrap;perimeter=rhombusPerimeter;fillColor=#ffe6cc;strokeColor=#d79b00;" parent="1" vertex="1">
          <mxGeometry x="595" y="2810" width="60" height="50" as="geometry" />
        </mxCell>
        <mxCell id="4NSACW-JndKBF8pRT-ID-217" value="165-170" style="shape=ellipse;html=1;dashed=0;whiteSpace=wrap;aspect=fixed;perimeter=ellipsePerimeter;" parent="1" vertex="1">
          <mxGeometry x="600" y="2900" width="50" height="50" as="geometry" />
        </mxCell>
        <mxCell id="4NSACW-JndKBF8pRT-ID-218" value="170-175" style="shape=parallelogram;perimeter=parallelogramPerimeter;whiteSpace=wrap;html=1;dashed=0;" parent="1" vertex="1">
          <mxGeometry x="575" y="3000" width="100" height="50" as="geometry" />
        </mxCell>
        <mxCell id="4NSACW-JndKBF8pRT-ID-219" value="" style="verticalLabelPosition=bottom;verticalAlign=top;html=1;shape=mxgraph.basic.patternFillRect;fillStyle=grid;step=5;fillStrokeWidth=0.2;fillStrokeColor=#dddddd;" parent="1" vertex="1">
          <mxGeometry x="75" y="3210" width="600" height="60" as="geometry" />
        </mxCell>
        <mxCell id="4NSACW-JndKBF8pRT-ID-220" value="" style="verticalLabelPosition=bottom;verticalAlign=top;html=1;shape=mxgraph.basic.patternFillRect;fillStyle=grid;step=5;fillStrokeWidth=0.2;fillStrokeColor=#dddddd;" parent="1" vertex="1">
          <mxGeometry x="75" y="3320" width="600" height="60" as="geometry" />
        </mxCell>
        <mxCell id="4NSACW-JndKBF8pRT-ID-221" value="" style="rounded=0;whiteSpace=wrap;html=1;" parent="1" vertex="1">
          <mxGeometry x="705" y="2660" width="120" height="440" as="geometry" />
        </mxCell>
        <mxCell id="4NSACW-JndKBF8pRT-ID-222" value="0-5" style="html=1;dashed=0;whiteSpace=wrap;" parent="1" vertex="1">
          <mxGeometry x="715" y="2710" width="100" height="50" as="geometry" />
        </mxCell>
        <mxCell id="4NSACW-JndKBF8pRT-ID-223" value="5-10" style="shape=rhombus;html=1;dashed=0;whiteSpace=wrap;perimeter=rhombusPerimeter;" parent="1" vertex="1">
          <mxGeometry x="735" y="2810" width="60" height="50" as="geometry" />
        </mxCell>
        <mxCell id="4NSACW-JndKBF8pRT-ID-224" value="10-15" style="shape=ellipse;html=1;dashed=0;whiteSpace=wrap;aspect=fixed;perimeter=ellipsePerimeter;" parent="1" vertex="1">
          <mxGeometry x="745" y="2905" width="40" height="40" as="geometry" />
        </mxCell>
        <mxCell id="4NSACW-JndKBF8pRT-ID-225" value="15-20" style="shape=parallelogram;perimeter=parallelogramPerimeter;whiteSpace=wrap;html=1;dashed=0;" parent="1" vertex="1">
          <mxGeometry x="715" y="3000" width="100" height="50" as="geometry" />
        </mxCell>
        <mxCell id="4NSACW-JndKBF8pRT-ID-226" value="" style="rounded=0;whiteSpace=wrap;html=1;" parent="1" vertex="1">
          <mxGeometry x="855" y="2660" width="120" height="440" as="geometry" />
        </mxCell>
        <mxCell id="4NSACW-JndKBF8pRT-ID-227" value="0-5" style="html=1;dashed=0;whiteSpace=wrap;" parent="1" vertex="1">
          <mxGeometry x="865" y="2710" width="100" height="50" as="geometry" />
        </mxCell>
        <mxCell id="4NSACW-JndKBF8pRT-ID-228" value="5-10" style="shape=rhombus;html=1;dashed=0;whiteSpace=wrap;perimeter=rhombusPerimeter;" parent="1" vertex="1">
          <mxGeometry x="885" y="2810" width="60" height="50" as="geometry" />
        </mxCell>
        <mxCell id="4NSACW-JndKBF8pRT-ID-229" value="10-15" style="shape=ellipse;html=1;dashed=0;whiteSpace=wrap;aspect=fixed;perimeter=ellipsePerimeter;" parent="1" vertex="1">
          <mxGeometry x="895" y="2910" width="40" height="40" as="geometry" />
        </mxCell>
        <mxCell id="4NSACW-JndKBF8pRT-ID-230" value="15-20" style="shape=parallelogram;perimeter=parallelogramPerimeter;whiteSpace=wrap;html=1;dashed=0;" parent="1" vertex="1">
          <mxGeometry x="865" y="3000" width="100" height="50" as="geometry" />
        </mxCell>
        <mxCell id="4NSACW-JndKBF8pRT-ID-231" value="" style="rounded=0;whiteSpace=wrap;html=1;" parent="1" vertex="1">
          <mxGeometry x="1015" y="2660" width="120" height="440" as="geometry" />
        </mxCell>
        <mxCell id="4NSACW-JndKBF8pRT-ID-232" value="20-25" style="html=1;dashed=0;whiteSpace=wrap;" parent="1" vertex="1">
          <mxGeometry x="1025" y="2710" width="100" height="50" as="geometry" />
        </mxCell>
        <mxCell id="4NSACW-JndKBF8pRT-ID-233" value="25-30" style="shape=rhombus;html=1;dashed=0;whiteSpace=wrap;perimeter=rhombusPerimeter;" parent="1" vertex="1">
          <mxGeometry x="1045" y="2810" width="60" height="50" as="geometry" />
        </mxCell>
        <mxCell id="4NSACW-JndKBF8pRT-ID-234" value="30-35" style="shape=ellipse;html=1;dashed=0;whiteSpace=wrap;aspect=fixed;perimeter=ellipsePerimeter;" parent="1" vertex="1">
          <mxGeometry x="1045" y="2910" width="55" height="55" as="geometry" />
        </mxCell>
        <mxCell id="4NSACW-JndKBF8pRT-ID-235" value="35-40" style="shape=parallelogram;perimeter=parallelogramPerimeter;whiteSpace=wrap;html=1;dashed=0;" parent="1" vertex="1">
          <mxGeometry x="1025" y="3000" width="100" height="50" as="geometry" />
        </mxCell>
        <mxCell id="4NSACW-JndKBF8pRT-ID-236" value="A" style="text;html=1;strokeColor=none;fillColor=none;align=center;verticalAlign=middle;whiteSpace=wrap;rounded=0;" parent="1" vertex="1">
          <mxGeometry x="115" y="3100" width="60" height="30" as="geometry" />
        </mxCell>
        <mxCell id="4NSACW-JndKBF8pRT-ID-237" value="B" style="text;html=1;strokeColor=none;fillColor=none;align=center;verticalAlign=middle;whiteSpace=wrap;rounded=0;" parent="1" vertex="1">
          <mxGeometry x="275" y="3100" width="60" height="30" as="geometry" />
        </mxCell>
        <mxCell id="4NSACW-JndKBF8pRT-ID-238" value="C" style="text;html=1;strokeColor=none;fillColor=none;align=center;verticalAlign=middle;whiteSpace=wrap;rounded=0;" parent="1" vertex="1">
          <mxGeometry x="435" y="3100" width="60" height="30" as="geometry" />
        </mxCell>
        <mxCell id="4NSACW-JndKBF8pRT-ID-239" value="D" style="text;html=1;strokeColor=none;fillColor=none;align=center;verticalAlign=middle;whiteSpace=wrap;rounded=0;" parent="1" vertex="1">
          <mxGeometry x="595" y="3110" width="60" height="30" as="geometry" />
        </mxCell>
        <mxCell id="4NSACW-JndKBF8pRT-ID-240" value="E" style="text;html=1;strokeColor=none;fillColor=none;align=center;verticalAlign=middle;whiteSpace=wrap;rounded=0;" parent="1" vertex="1">
          <mxGeometry x="735" y="3110" width="60" height="30" as="geometry" />
        </mxCell>
        <mxCell id="4NSACW-JndKBF8pRT-ID-241" value="F" style="text;html=1;strokeColor=none;fillColor=none;align=center;verticalAlign=middle;whiteSpace=wrap;rounded=0;" parent="1" vertex="1">
          <mxGeometry x="885" y="3110" width="60" height="30" as="geometry" />
        </mxCell>
        <mxCell id="4NSACW-JndKBF8pRT-ID-242" value="G" style="text;html=1;strokeColor=none;fillColor=none;align=center;verticalAlign=middle;whiteSpace=wrap;rounded=0;" parent="1" vertex="1">
          <mxGeometry x="1040" y="3110" width="60" height="30" as="geometry" />
        </mxCell>
        <mxCell id="4NSACW-JndKBF8pRT-ID-243" value="" style="verticalLabelPosition=bottom;verticalAlign=top;html=1;shape=mxgraph.basic.patternFillRect;fillStyle=grid;step=5;fillStrokeWidth=0.2;fillStrokeColor=#dddddd;fillColor=#e1d5e7;strokeColor=#9673a6;" parent="1" vertex="1">
          <mxGeometry x="75" y="3430" width="600" height="60" as="geometry" />
        </mxCell>
        <mxCell id="4NSACW-JndKBF8pRT-ID-249" value="H" style="text;html=1;strokeColor=none;fillColor=none;align=center;verticalAlign=middle;whiteSpace=wrap;rounded=0;" parent="1" vertex="1">
          <mxGeometry x="1185" y="3110" width="60" height="30" as="geometry" />
        </mxCell>
        <mxCell id="4NSACW-JndKBF8pRT-ID-250" value="5-45" style="shape=rhombus;html=1;dashed=0;whiteSpace=wrap;perimeter=rhombusPerimeter;fillColor=#ffe6cc;strokeColor=#d79b00;" parent="1" vertex="1">
          <mxGeometry x="85" y="3440" width="60" height="50" as="geometry" />
        </mxCell>
        <mxCell id="4NSACW-JndKBF8pRT-ID-251" value="45-85" style="shape=rhombus;html=1;dashed=0;whiteSpace=wrap;perimeter=rhombusPerimeter;fillColor=#ffe6cc;strokeColor=#d79b00;" parent="1" vertex="1">
          <mxGeometry x="215" y="3440" width="60" height="50" as="geometry" />
        </mxCell>
        <mxCell id="4NSACW-JndKBF8pRT-ID-252" value="85-125" style="shape=rhombus;html=1;dashed=0;whiteSpace=wrap;perimeter=rhombusPerimeter;fillColor=#ffe6cc;strokeColor=#d79b00;" parent="1" vertex="1">
          <mxGeometry x="390" y="3440" width="60" height="50" as="geometry" />
        </mxCell>
        <mxCell id="4NSACW-JndKBF8pRT-ID-253" value="125-165" style="shape=rhombus;html=1;dashed=0;whiteSpace=wrap;perimeter=rhombusPerimeter;fillColor=#ffe6cc;strokeColor=#d79b00;" parent="1" vertex="1">
          <mxGeometry x="545" y="3440" width="60" height="50" as="geometry" />
        </mxCell>
        <mxCell id="4NSACW-JndKBF8pRT-ID-254" value="5-10" style="shape=rhombus;html=1;dashed=0;whiteSpace=wrap;perimeter=rhombusPerimeter;" parent="1" vertex="1">
          <mxGeometry x="75" y="3215" width="60" height="50" as="geometry" />
        </mxCell>
        <mxCell id="4NSACW-JndKBF8pRT-ID-255" value="5-10" style="shape=rhombus;html=1;dashed=0;whiteSpace=wrap;perimeter=rhombusPerimeter;" parent="1" vertex="1">
          <mxGeometry x="75" y="3325" width="60" height="50" as="geometry" />
        </mxCell>
        <mxCell id="4NSACW-JndKBF8pRT-ID-256" value="25-30" style="shape=rhombus;html=1;dashed=0;whiteSpace=wrap;perimeter=rhombusPerimeter;" parent="1" vertex="1">
          <mxGeometry x="135" y="3215" width="60" height="50" as="geometry" />
        </mxCell>
        <mxCell id="4NSACW-JndKBF8pRT-ID-257" value="25-30" style="shape=rhombus;html=1;dashed=0;whiteSpace=wrap;perimeter=rhombusPerimeter;" parent="1" vertex="1">
          <mxGeometry x="135" y="3325" width="60" height="50" as="geometry" />
        </mxCell>
        <mxCell id="4NSACW-JndKBF8pRT-ID-258" value="" style="rounded=0;whiteSpace=wrap;html=1;" parent="1" vertex="1">
          <mxGeometry x="1160" y="2660" width="120" height="440" as="geometry" />
        </mxCell>
        <mxCell id="4NSACW-JndKBF8pRT-ID-259" value="20-25" style="html=1;dashed=0;whiteSpace=wrap;" parent="1" vertex="1">
          <mxGeometry x="1170" y="2710" width="100" height="50" as="geometry" />
        </mxCell>
        <mxCell id="4NSACW-JndKBF8pRT-ID-260" value="25-30" style="shape=rhombus;html=1;dashed=0;whiteSpace=wrap;perimeter=rhombusPerimeter;" parent="1" vertex="1">
          <mxGeometry x="1190" y="2810" width="60" height="50" as="geometry" />
        </mxCell>
        <mxCell id="4NSACW-JndKBF8pRT-ID-261" value="30-35" style="shape=ellipse;html=1;dashed=0;whiteSpace=wrap;aspect=fixed;perimeter=ellipsePerimeter;" parent="1" vertex="1">
          <mxGeometry x="1190" y="2910" width="55" height="55" as="geometry" />
        </mxCell>
        <mxCell id="4NSACW-JndKBF8pRT-ID-262" value="35-40" style="shape=parallelogram;perimeter=parallelogramPerimeter;whiteSpace=wrap;html=1;dashed=0;" parent="1" vertex="1">
          <mxGeometry x="1170" y="3000" width="100" height="50" as="geometry" />
        </mxCell>
        <mxCell id="4NSACW-JndKBF8pRT-ID-263" value="" style="rounded=0;whiteSpace=wrap;html=1;fillColor=#d5e8d4;strokeColor=#82b366;" parent="1" vertex="1">
          <mxGeometry x="75" y="3640" width="120" height="440" as="geometry" />
        </mxCell>
        <mxCell id="4NSACW-JndKBF8pRT-ID-264" value="0-5" style="html=1;dashed=0;whiteSpace=wrap;" parent="1" vertex="1">
          <mxGeometry x="85" y="3690" width="100" height="50" as="geometry" />
        </mxCell>
        <mxCell id="4NSACW-JndKBF8pRT-ID-265" value="5-45" style="shape=rhombus;html=1;dashed=0;whiteSpace=wrap;perimeter=rhombusPerimeter;fillColor=#ffe6cc;strokeColor=#d79b00;" parent="1" vertex="1">
          <mxGeometry x="105" y="3790" width="60" height="50" as="geometry" />
        </mxCell>
        <mxCell id="4NSACW-JndKBF8pRT-ID-266" value="45-50" style="shape=ellipse;html=1;dashed=0;whiteSpace=wrap;aspect=fixed;perimeter=ellipsePerimeter;" parent="1" vertex="1">
          <mxGeometry x="115" y="3890" width="40" height="40" as="geometry" />
        </mxCell>
        <mxCell id="4NSACW-JndKBF8pRT-ID-267" value="50-55" style="shape=parallelogram;perimeter=parallelogramPerimeter;whiteSpace=wrap;html=1;dashed=0;" parent="1" vertex="1">
          <mxGeometry x="85" y="3980" width="100" height="50" as="geometry" />
        </mxCell>
        <mxCell id="4NSACW-JndKBF8pRT-ID-268" value="" style="rounded=0;whiteSpace=wrap;html=1;fillColor=#d5e8d4;strokeColor=#82b366;" parent="1" vertex="1">
          <mxGeometry x="235" y="3640" width="120" height="440" as="geometry" />
        </mxCell>
        <mxCell id="4NSACW-JndKBF8pRT-ID-269" value="55-60" style="html=1;dashed=0;whiteSpace=wrap;" parent="1" vertex="1">
          <mxGeometry x="245" y="3690" width="100" height="50" as="geometry" />
        </mxCell>
        <mxCell id="4NSACW-JndKBF8pRT-ID-270" value="60-100" style="shape=rhombus;html=1;dashed=0;whiteSpace=wrap;perimeter=rhombusPerimeter;fillColor=#ffe6cc;strokeColor=#d79b00;" parent="1" vertex="1">
          <mxGeometry x="265" y="3790" width="60" height="50" as="geometry" />
        </mxCell>
        <mxCell id="4NSACW-JndKBF8pRT-ID-271" value="100-105" style="shape=ellipse;html=1;dashed=0;whiteSpace=wrap;aspect=fixed;perimeter=ellipsePerimeter;" parent="1" vertex="1">
          <mxGeometry x="275" y="3880" width="40" height="40" as="geometry" />
        </mxCell>
        <mxCell id="4NSACW-JndKBF8pRT-ID-272" value="105-110" style="shape=parallelogram;perimeter=parallelogramPerimeter;whiteSpace=wrap;html=1;dashed=0;" parent="1" vertex="1">
          <mxGeometry x="245" y="3980" width="100" height="50" as="geometry" />
        </mxCell>
        <mxCell id="4NSACW-JndKBF8pRT-ID-273" value="" style="rounded=0;whiteSpace=wrap;html=1;fillColor=#d5e8d4;strokeColor=#82b366;" parent="1" vertex="1">
          <mxGeometry x="395" y="3640" width="120" height="440" as="geometry" />
        </mxCell>
        <mxCell id="4NSACW-JndKBF8pRT-ID-274" value="110-115" style="html=1;dashed=0;whiteSpace=wrap;" parent="1" vertex="1">
          <mxGeometry x="405" y="3690" width="100" height="50" as="geometry" />
        </mxCell>
        <mxCell id="4NSACW-JndKBF8pRT-ID-275" value="115-155" style="shape=rhombus;html=1;dashed=0;whiteSpace=wrap;perimeter=rhombusPerimeter;fillColor=#ffe6cc;strokeColor=#d79b00;" parent="1" vertex="1">
          <mxGeometry x="425" y="3790" width="60" height="50" as="geometry" />
        </mxCell>
        <mxCell id="4NSACW-JndKBF8pRT-ID-276" value="155-160" style="shape=ellipse;html=1;dashed=0;whiteSpace=wrap;aspect=fixed;perimeter=ellipsePerimeter;" parent="1" vertex="1">
          <mxGeometry x="435" y="3880" width="50" height="50" as="geometry" />
        </mxCell>
        <mxCell id="4NSACW-JndKBF8pRT-ID-277" value="160-165" style="shape=parallelogram;perimeter=parallelogramPerimeter;whiteSpace=wrap;html=1;dashed=0;" parent="1" vertex="1">
          <mxGeometry x="405" y="3980" width="100" height="50" as="geometry" />
        </mxCell>
        <mxCell id="4NSACW-JndKBF8pRT-ID-278" value="" style="rounded=0;whiteSpace=wrap;html=1;fillColor=#d5e8d4;strokeColor=#82b366;" parent="1" vertex="1">
          <mxGeometry x="555" y="3640" width="120" height="440" as="geometry" />
        </mxCell>
        <mxCell id="4NSACW-JndKBF8pRT-ID-279" value="165-170" style="html=1;dashed=0;whiteSpace=wrap;" parent="1" vertex="1">
          <mxGeometry x="565" y="3690" width="100" height="50" as="geometry" />
        </mxCell>
        <mxCell id="4NSACW-JndKBF8pRT-ID-280" value="170-210" style="shape=rhombus;html=1;dashed=0;whiteSpace=wrap;perimeter=rhombusPerimeter;fillColor=#ffe6cc;strokeColor=#d79b00;" parent="1" vertex="1">
          <mxGeometry x="585" y="3790" width="60" height="50" as="geometry" />
        </mxCell>
        <mxCell id="4NSACW-JndKBF8pRT-ID-281" value="210-215" style="shape=ellipse;html=1;dashed=0;whiteSpace=wrap;aspect=fixed;perimeter=ellipsePerimeter;" parent="1" vertex="1">
          <mxGeometry x="590" y="3880" width="50" height="50" as="geometry" />
        </mxCell>
        <mxCell id="4NSACW-JndKBF8pRT-ID-282" value="215-220" style="shape=parallelogram;perimeter=parallelogramPerimeter;whiteSpace=wrap;html=1;dashed=0;" parent="1" vertex="1">
          <mxGeometry x="565" y="3980" width="100" height="50" as="geometry" />
        </mxCell>
        <mxCell id="4NSACW-JndKBF8pRT-ID-283" value="" style="verticalLabelPosition=bottom;verticalAlign=top;html=1;shape=mxgraph.basic.patternFillRect;fillStyle=grid;step=5;fillStrokeWidth=0.2;fillStrokeColor=#dddddd;" parent="1" vertex="1">
          <mxGeometry x="65" y="4190" width="600" height="60" as="geometry" />
        </mxCell>
        <mxCell id="4NSACW-JndKBF8pRT-ID-284" value="" style="verticalLabelPosition=bottom;verticalAlign=top;html=1;shape=mxgraph.basic.patternFillRect;fillStyle=grid;step=5;fillStrokeWidth=0.2;fillStrokeColor=#dddddd;" parent="1" vertex="1">
          <mxGeometry x="65" y="4300" width="600" height="60" as="geometry" />
        </mxCell>
        <mxCell id="4NSACW-JndKBF8pRT-ID-285" value="" style="rounded=0;whiteSpace=wrap;html=1;" parent="1" vertex="1">
          <mxGeometry x="695" y="3640" width="120" height="440" as="geometry" />
        </mxCell>
        <mxCell id="4NSACW-JndKBF8pRT-ID-286" value="0-5" style="html=1;dashed=0;whiteSpace=wrap;" parent="1" vertex="1">
          <mxGeometry x="705" y="3690" width="100" height="50" as="geometry" />
        </mxCell>
        <mxCell id="4NSACW-JndKBF8pRT-ID-287" value="5-10" style="shape=rhombus;html=1;dashed=0;whiteSpace=wrap;perimeter=rhombusPerimeter;" parent="1" vertex="1">
          <mxGeometry x="725" y="3790" width="60" height="50" as="geometry" />
        </mxCell>
        <mxCell id="4NSACW-JndKBF8pRT-ID-288" value="10-15" style="shape=ellipse;html=1;dashed=0;whiteSpace=wrap;aspect=fixed;perimeter=ellipsePerimeter;" parent="1" vertex="1">
          <mxGeometry x="735" y="3885" width="40" height="40" as="geometry" />
        </mxCell>
        <mxCell id="4NSACW-JndKBF8pRT-ID-289" value="15-20" style="shape=parallelogram;perimeter=parallelogramPerimeter;whiteSpace=wrap;html=1;dashed=0;" parent="1" vertex="1">
          <mxGeometry x="705" y="3980" width="100" height="50" as="geometry" />
        </mxCell>
        <mxCell id="4NSACW-JndKBF8pRT-ID-290" value="" style="rounded=0;whiteSpace=wrap;html=1;" parent="1" vertex="1">
          <mxGeometry x="845" y="3640" width="120" height="440" as="geometry" />
        </mxCell>
        <mxCell id="4NSACW-JndKBF8pRT-ID-291" value="0-5" style="html=1;dashed=0;whiteSpace=wrap;" parent="1" vertex="1">
          <mxGeometry x="855" y="3690" width="100" height="50" as="geometry" />
        </mxCell>
        <mxCell id="4NSACW-JndKBF8pRT-ID-292" value="5-10" style="shape=rhombus;html=1;dashed=0;whiteSpace=wrap;perimeter=rhombusPerimeter;" parent="1" vertex="1">
          <mxGeometry x="875" y="3790" width="60" height="50" as="geometry" />
        </mxCell>
        <mxCell id="4NSACW-JndKBF8pRT-ID-293" value="10-15" style="shape=ellipse;html=1;dashed=0;whiteSpace=wrap;aspect=fixed;perimeter=ellipsePerimeter;" parent="1" vertex="1">
          <mxGeometry x="885" y="3890" width="40" height="40" as="geometry" />
        </mxCell>
        <mxCell id="4NSACW-JndKBF8pRT-ID-294" value="15-20" style="shape=parallelogram;perimeter=parallelogramPerimeter;whiteSpace=wrap;html=1;dashed=0;" parent="1" vertex="1">
          <mxGeometry x="855" y="3980" width="100" height="50" as="geometry" />
        </mxCell>
        <mxCell id="4NSACW-JndKBF8pRT-ID-295" value="" style="rounded=0;whiteSpace=wrap;html=1;" parent="1" vertex="1">
          <mxGeometry x="1005" y="3640" width="120" height="440" as="geometry" />
        </mxCell>
        <mxCell id="4NSACW-JndKBF8pRT-ID-296" value="0-5" style="html=1;dashed=0;whiteSpace=wrap;" parent="1" vertex="1">
          <mxGeometry x="1015" y="3690" width="100" height="50" as="geometry" />
        </mxCell>
        <mxCell id="4NSACW-JndKBF8pRT-ID-297" value="15-20" style="shape=rhombus;html=1;dashed=0;whiteSpace=wrap;perimeter=rhombusPerimeter;" parent="1" vertex="1">
          <mxGeometry x="1035" y="3790" width="60" height="50" as="geometry" />
        </mxCell>
        <mxCell id="4NSACW-JndKBF8pRT-ID-298" value="20-25" style="shape=ellipse;html=1;dashed=0;whiteSpace=wrap;aspect=fixed;perimeter=ellipsePerimeter;" parent="1" vertex="1">
          <mxGeometry x="1035" y="3890" width="55" height="55" as="geometry" />
        </mxCell>
        <mxCell id="4NSACW-JndKBF8pRT-ID-299" value="25-30" style="shape=parallelogram;perimeter=parallelogramPerimeter;whiteSpace=wrap;html=1;dashed=0;" parent="1" vertex="1">
          <mxGeometry x="1015" y="3980" width="100" height="50" as="geometry" />
        </mxCell>
        <mxCell id="4NSACW-JndKBF8pRT-ID-300" value="A" style="text;html=1;strokeColor=none;fillColor=none;align=center;verticalAlign=middle;whiteSpace=wrap;rounded=0;" parent="1" vertex="1">
          <mxGeometry x="105" y="4080" width="60" height="30" as="geometry" />
        </mxCell>
        <mxCell id="4NSACW-JndKBF8pRT-ID-301" value="B" style="text;html=1;strokeColor=none;fillColor=none;align=center;verticalAlign=middle;whiteSpace=wrap;rounded=0;" parent="1" vertex="1">
          <mxGeometry x="265" y="4080" width="60" height="30" as="geometry" />
        </mxCell>
        <mxCell id="4NSACW-JndKBF8pRT-ID-302" value="C" style="text;html=1;strokeColor=none;fillColor=none;align=center;verticalAlign=middle;whiteSpace=wrap;rounded=0;" parent="1" vertex="1">
          <mxGeometry x="425" y="4080" width="60" height="30" as="geometry" />
        </mxCell>
        <mxCell id="4NSACW-JndKBF8pRT-ID-303" value="D" style="text;html=1;strokeColor=none;fillColor=none;align=center;verticalAlign=middle;whiteSpace=wrap;rounded=0;" parent="1" vertex="1">
          <mxGeometry x="585" y="4090" width="60" height="30" as="geometry" />
        </mxCell>
        <mxCell id="4NSACW-JndKBF8pRT-ID-304" value="E" style="text;html=1;strokeColor=none;fillColor=none;align=center;verticalAlign=middle;whiteSpace=wrap;rounded=0;" parent="1" vertex="1">
          <mxGeometry x="725" y="4090" width="60" height="30" as="geometry" />
        </mxCell>
        <mxCell id="4NSACW-JndKBF8pRT-ID-305" value="F" style="text;html=1;strokeColor=none;fillColor=none;align=center;verticalAlign=middle;whiteSpace=wrap;rounded=0;" parent="1" vertex="1">
          <mxGeometry x="875" y="4090" width="60" height="30" as="geometry" />
        </mxCell>
        <mxCell id="4NSACW-JndKBF8pRT-ID-306" value="G" style="text;html=1;strokeColor=none;fillColor=none;align=center;verticalAlign=middle;whiteSpace=wrap;rounded=0;" parent="1" vertex="1">
          <mxGeometry x="1030" y="4090" width="60" height="30" as="geometry" />
        </mxCell>
        <mxCell id="4NSACW-JndKBF8pRT-ID-307" value="" style="verticalLabelPosition=bottom;verticalAlign=top;html=1;shape=mxgraph.basic.patternFillRect;fillStyle=grid;step=5;fillStrokeWidth=0.2;fillStrokeColor=#dddddd;fillColor=#e1d5e7;strokeColor=#9673a6;" parent="1" vertex="1">
          <mxGeometry x="65" y="4410" width="600" height="60" as="geometry" />
        </mxCell>
        <mxCell id="4NSACW-JndKBF8pRT-ID-308" value="H" style="text;html=1;strokeColor=none;fillColor=none;align=center;verticalAlign=middle;whiteSpace=wrap;rounded=0;" parent="1" vertex="1">
          <mxGeometry x="1175" y="4090" width="60" height="30" as="geometry" />
        </mxCell>
        <mxCell id="4NSACW-JndKBF8pRT-ID-309" value="5-45" style="shape=rhombus;html=1;dashed=0;whiteSpace=wrap;perimeter=rhombusPerimeter;fillColor=#ffe6cc;strokeColor=#d79b00;" parent="1" vertex="1">
          <mxGeometry x="75" y="4420" width="60" height="50" as="geometry" />
        </mxCell>
        <mxCell id="4NSACW-JndKBF8pRT-ID-313" value="5-10" style="shape=rhombus;html=1;dashed=0;whiteSpace=wrap;perimeter=rhombusPerimeter;" parent="1" vertex="1">
          <mxGeometry x="145" y="4200" width="60" height="50" as="geometry" />
        </mxCell>
        <mxCell id="4NSACW-JndKBF8pRT-ID-314" value="5-10" style="shape=rhombus;html=1;dashed=0;whiteSpace=wrap;perimeter=rhombusPerimeter;" parent="1" vertex="1">
          <mxGeometry x="145" y="4310" width="60" height="50" as="geometry" />
        </mxCell>
        <mxCell id="4NSACW-JndKBF8pRT-ID-315" value="15-20" style="shape=rhombus;html=1;dashed=0;whiteSpace=wrap;perimeter=rhombusPerimeter;" parent="1" vertex="1">
          <mxGeometry x="205" y="4200" width="60" height="50" as="geometry" />
        </mxCell>
        <mxCell id="4NSACW-JndKBF8pRT-ID-316" value="25-30" style="shape=rhombus;html=1;dashed=0;whiteSpace=wrap;perimeter=rhombusPerimeter;" parent="1" vertex="1">
          <mxGeometry x="205" y="4310" width="60" height="50" as="geometry" />
        </mxCell>
        <mxCell id="4NSACW-JndKBF8pRT-ID-317" value="" style="rounded=0;whiteSpace=wrap;html=1;" parent="1" vertex="1">
          <mxGeometry x="1150" y="3640" width="120" height="440" as="geometry" />
        </mxCell>
        <mxCell id="4NSACW-JndKBF8pRT-ID-318" value="20-25" style="html=1;dashed=0;whiteSpace=wrap;" parent="1" vertex="1">
          <mxGeometry x="1160" y="3690" width="100" height="50" as="geometry" />
        </mxCell>
        <mxCell id="4NSACW-JndKBF8pRT-ID-319" value="25-30" style="shape=rhombus;html=1;dashed=0;whiteSpace=wrap;perimeter=rhombusPerimeter;" parent="1" vertex="1">
          <mxGeometry x="1180" y="3790" width="60" height="50" as="geometry" />
        </mxCell>
        <mxCell id="4NSACW-JndKBF8pRT-ID-320" value="30-35" style="shape=ellipse;html=1;dashed=0;whiteSpace=wrap;aspect=fixed;perimeter=ellipsePerimeter;" parent="1" vertex="1">
          <mxGeometry x="1180" y="3890" width="55" height="55" as="geometry" />
        </mxCell>
        <mxCell id="4NSACW-JndKBF8pRT-ID-321" value="35-40" style="shape=parallelogram;perimeter=parallelogramPerimeter;whiteSpace=wrap;html=1;dashed=0;" parent="1" vertex="1">
          <mxGeometry x="1160" y="3980" width="100" height="50" as="geometry" />
        </mxCell>
        <mxCell id="4NSACW-JndKBF8pRT-ID-322" value="60-100" style="shape=rhombus;html=1;dashed=0;whiteSpace=wrap;perimeter=rhombusPerimeter;fillColor=#ffe6cc;strokeColor=#d79b00;" parent="1" vertex="1">
          <mxGeometry x="220" y="4420" width="60" height="50" as="geometry" />
        </mxCell>
        <mxCell id="4NSACW-JndKBF8pRT-ID-323" value="115-155" style="shape=rhombus;html=1;dashed=0;whiteSpace=wrap;perimeter=rhombusPerimeter;fillColor=#ffe6cc;strokeColor=#d79b00;" parent="1" vertex="1">
          <mxGeometry x="380" y="4420" width="60" height="50" as="geometry" />
        </mxCell>
        <mxCell id="4NSACW-JndKBF8pRT-ID-324" value="170-210" style="shape=rhombus;html=1;dashed=0;whiteSpace=wrap;perimeter=rhombusPerimeter;fillColor=#ffe6cc;strokeColor=#d79b00;" parent="1" vertex="1">
          <mxGeometry x="545" y="4420" width="60" height="50" as="geometry" />
        </mxCell>
        <mxCell id="4NSACW-JndKBF8pRT-ID-325" value="" style="verticalLabelPosition=bottom;verticalAlign=top;html=1;shape=mxgraph.basic.patternFillRect;fillStyle=grid;step=5;fillStrokeWidth=0.2;fillStrokeColor=#dddddd;" parent="1" vertex="1">
          <mxGeometry x="80" y="670" width="600" height="60" as="geometry" />
        </mxCell>
        <mxCell id="4NSACW-JndKBF8pRT-ID-326" value="5-10" style="shape=rhombus;html=1;dashed=0;whiteSpace=wrap;perimeter=rhombusPerimeter;" parent="1" vertex="1">
          <mxGeometry x="120" y="675" width="60" height="50" as="geometry" />
        </mxCell>
        <mxCell id="4NSACW-JndKBF8pRT-ID-327" value="10-15" style="shape=rhombus;html=1;dashed=0;whiteSpace=wrap;perimeter=rhombusPerimeter;" parent="1" vertex="1">
          <mxGeometry x="210" y="675" width="60" height="50" as="geometry" />
        </mxCell>
        <mxCell id="4NSACW-JndKBF8pRT-ID-328" value="20-25" style="shape=rhombus;html=1;dashed=0;whiteSpace=wrap;perimeter=rhombusPerimeter;" parent="1" vertex="1">
          <mxGeometry x="430" y="675" width="60" height="50" as="geometry" />
        </mxCell>
        <mxCell id="4NSACW-JndKBF8pRT-ID-329" value="25-30" style="shape=rhombus;html=1;dashed=0;whiteSpace=wrap;perimeter=rhombusPerimeter;" parent="1" vertex="1">
          <mxGeometry x="505" y="675" width="60" height="50" as="geometry" />
        </mxCell>
        <mxCell id="4NSACW-JndKBF8pRT-ID-330" value="" style="verticalLabelPosition=bottom;verticalAlign=top;html=1;shape=mxgraph.basic.patternFillRect;fillStyle=grid;step=5;fillStrokeWidth=0.2;fillStrokeColor=#dddddd;" parent="1" vertex="1">
          <mxGeometry x="80" y="1580" width="600" height="60" as="geometry" />
        </mxCell>
        <mxCell id="4NSACW-JndKBF8pRT-ID-331" value="5-45" style="shape=rhombus;html=1;dashed=0;whiteSpace=wrap;perimeter=rhombusPerimeter;fillColor=#ffe6cc;strokeColor=#d79b00;" parent="1" vertex="1">
          <mxGeometry x="120" y="1585" width="60" height="50" as="geometry" />
        </mxCell>
        <mxCell id="4NSACW-JndKBF8pRT-ID-332" value="45-85" style="shape=rhombus;html=1;dashed=0;whiteSpace=wrap;perimeter=rhombusPerimeter;fillColor=#ffe6cc;strokeColor=#d79b00;" parent="1" vertex="1">
          <mxGeometry x="210" y="1585" width="60" height="50" as="geometry" />
        </mxCell>
        <mxCell id="4NSACW-JndKBF8pRT-ID-333" value="85-90" style="shape=rhombus;html=1;dashed=0;whiteSpace=wrap;perimeter=rhombusPerimeter;" parent="1" vertex="1">
          <mxGeometry x="430" y="1585" width="60" height="50" as="geometry" />
        </mxCell>
        <mxCell id="4NSACW-JndKBF8pRT-ID-334" value="100-105" style="shape=rhombus;html=1;dashed=0;whiteSpace=wrap;perimeter=rhombusPerimeter;" parent="1" vertex="1">
          <mxGeometry x="500" y="1585" width="60" height="50" as="geometry" />
        </mxCell>
      </root>
    </mxGraphModel>
  </diagram>
</mxfile>
